  0
SECTION
  2
HEADER
  9
$ACADVER
  1
AC1009
  9
$DWGCODEPAGE
  3
ansi_1252
  9
$INSUNITS
 70
4
  9
$INSBASE
 10
0.0
 20
0.0
 30
0.0
  9
$EXTMIN
 10
0.0
 20
0.0
 30
0.0
  9
$EXTMAX
 10
210.0
 20
297.0
 30
0.0
  9
$LIMMIN
 10
0.0
 20
0.0
  9
$LIMMAX
 10
210.0
 20
297.0
  9
$ORTHOMODE
 70
     0
  9
$REGENMODE
 70
     1
  9
$FILLMODE
 70
     1
  9
$QTEXTMODE
 70
     0
  9
$MIRRTEXT
 70
     1
  9
$DRAGMODE
 70
     2
  9
$LTSCALE
 40
1.0
  9
$OSMODE
 70
    37
  9
$ATTMODE
 70
     1
  9
$TEXTSIZE
 40
3.5277777778
  9
$TRACEWID
 40
1.0
  9
$TEXTSTYLE
  7
STANDARD
  9
$CLAYER
  8
0
  9
$CELTYPE
  6
BYLAYER
  9
$CECOLOR
 62
   256
  9
$DIMSCALE
 40
1.0
  9
$DIMASZ
 40
3.0
  9
$DIMEXO
 40
0.2
  9
$DIMDLI
 40
3.75
  9
$DIMRND
 40
0.0
  9
$DIMDLE
 40
0.0
  9
$DIMEXE
 40
1.0
  9
$DIMTP
 40
0.0
  9
$DIMTM
 40
0.0
  9
$DIMTXT
 40
3.5277777778
  9
$DIMCEN
 40
2.5
  9
$DIMTSZ
 40
0.0
  9
$DIMTOL
 70
     0
  9
$DIMLIM
 70
     0
  9
$DIMTIH
 70
     1
  9
$DIMTOH
 70
     1
  9
$DIMSE1
 70
     0
  9
$DIMSE2
 70
     0
  9
$DIMTAD
 70
     1
  9
$DIMZIN
 70
     0
  9
$DIMBLK
  1

  9
$DIMASO
 70
     1
  9
$DIMSHO
 70
     1
  9
$DIMPOST
  1

  9
$DIMAPOST
  1

  9
$DIMALT
 70
     0
  9
$DIMALTD
 70
     3
  9
$DIMALTF
 40
0.0393700787
  9
$DIMLFAC
 40
1.0
  9
$DIMTOFL
 70
     1
  9
$DIMTVP
 40
0.0
  9
$DIMTIX
 70
     0
  9
$DIMSOXD
 70
     0
  9
$DIMSAH
 70
     0
  9
$DIMBLK1
  1

  9
$DIMBLK2
  1

  9
$DIMSTYLE
  2
ISO-25
  9
$DIMCLRD
 70
     0
  9
$DIMCLRE
 70
     0
  9
$DIMCLRT
 70
     0
  9
$DIMTFAC
 40
1.0
  9
$DIMGAP
 40
1.524
  9
$LUNITS
 70
     2
  9
$LUPREC
 70
     3
  9
$SKETCHINC
 40
1.0
  9
$FILLETRAD
 40
10.0
  9
$AUNITS
 70
     0
  9
$AUPREC
 70
     3
  9
$MENU
  1
.
  9
$ELEVATION
 40
0.0
  9
$PELEVATION
 40
0.0
  9
$THICKNESS
 40
0.0
  9
$LIMCHECK
 70
     0
  9
$CHAMFERA
 40
0.0
  9
$CHAMFERB
 40
0.0
  9
$SKPOLY
 70
     0
  9
$TDCREATE
 40
2459891.591010463
  9
$TDUPDATE
 40
2459891.591010637
  9
$TDINDWG
 40
0.0000000116
  9
$TDUSRTIMER
 40
0.0000000116
  9
$USRTIMER
 70
     1
  9
$ANGBASE
 50
0.0
  9
$ANGDIR
 70
     0
  9
$PDMODE
 70
     0
  9
$PDSIZE
 40
-1.0
  9
$PLINEWID
 40
0.0
  9
$COORDS
 70
     1
  9
$SPLFRAME
 70
     0
  9
$SPLINETYPE
 70
     6
  9
$SPLINESEGS
 70
     8
  9
$ATTDIA
 70
     0
  9
$ATTREQ
 70
     1
  9
$HANDLING
 70
     1
  9
$HANDSEED
  5
120
  9
$SURFTAB1
 70
     6
  9
$SURFTAB2
 70
     6
  9
$SURFTYPE
 70
     6
  9
$SURFU
 70
     6
  9
$SURFV
 70
     6
  9
$UCSNAME
  2

  9
$UCSORG
 10
0.0
 20
0.0
 30
0.0
  9
$UCSXDIR
 10
1.0
 20
0.0
 30
0.0
  9
$UCSYDIR
 10
0.0
 20
1.0
 30
0.0
  9
$PUCSNAME
  2

  9
$PUCSORG
 10
0.0
 20
0.0
 30
0.0
  9
$PUCSXDIR
 10
1.0
 20
0.0
 30
0.0
  9
$PUCSYDIR
 10
0.0
 20
1.0
 30
0.0
  9
$USERI1
 70
     0
  9
$USERI2
 70
     0
  9
$USERI3
 70
     0
  9
$USERI4
 70
     0
  9
$USERI5
 70
     0
  9
$USERR1
 40
0.0
  9
$USERR2
 40
0.0
  9
$USERR3
 40
0.0
  9
$USERR4
 40
0.0
  9
$USERR5
 40
0.0
  9
$WORLDVIEW
 70
     1
  9
$SHADEDGE
 70
     3
  9
$SHADEDIF
 70
    70
  9
$TILEMODE
 70
     1
  9
$MAXACTVP
 70
    64
  9
$PLIMCHECK
 70
     0
  9
$PEXTMIN
 10
1.0000000000E+20
 20
1.0000000000E+20
 30
1.0000000000E+20
  9
$PEXTMAX
 10
-1.0000000000E+20
 20
-1.0000000000E+20
 30
-1.0000000000E+20
  9
$PLIMMIN
 10
0.0
 20
0.0
  9
$PLIMMAX
 10
420.0
 20
297.0
  9
$UNITMODE
 70
     0
  9
$VISRETAIN
 70
     1
  9
$PLINEGEN
 70
     0
  9
$PSLTSCALE
 70
     1
  0
ENDSEC
  0
SECTION
  2
TABLES
  0
TABLE
  2
VPORT
 70
     1
  0
VPORT
  2
*ACTIVE
 70
     0
 10
0.0
 20
0.0
 11
1.0
 21
1.0
 12
105.0
 22
148.5
 13
0.0
 23
0.0
 14
10.0
 24
10.0
 15
10.0
 25
10.0
 16
0.0
 26
0.0
 36
1.0
 17
0.0
 27
0.0
 37
0.0
 40
297.0
 41
0.7070707071
 42
50.0
 43
0.0
 44
0.0
 50
0.0
 51
0.0
 71
     0
 72
  2000
 73
     1
 74
     3
 75
     0
 76
     0
 77
     0
 78
     0
  0
ENDTAB
  0
TABLE
  2
LTYPE
 70
     8
  0
LTYPE
  2
CONTINUOUS
 70
     0
  3
Solid line
 72
    65
 73
     0
 40
0.0
  0
LTYPE
  2
SLD-DURCHGEHEND
 70
     0
  3
SolidWorks Line Style
 72
    65
 73
     0
 40
0.0
  0
LTYPE
  2
SLD-GESTRICHELT
 70
     0
  3
SolidWorks Line Style
 72
    65
 73
     2
 40
1.905
 49
1.27
 49
-0.635
  0
LTYPE
  2
SLD-PHANTOM
 70
     0
  3
SolidWorks Line Style
 72
    65
 73
     6
 40
12.7
 49
6.35
 49
-1.27
 49
1.27
 49
-1.27
 49
1.27
 49
-1.27
  0
LTYPE
  2
SLD-KETTE
 70
     0
  3
SolidWorks Line Style
 72
    65
 73
     4
 40
10.16
 49
6.35
 49
-1.27
 49
1.27
 49
-1.27
  0
LTYPE
  2
SLD-PUNKTSTRICH
 70
     0
  3
SolidWorks Line Style
 72
    65
 73
     4
 40
19.05
 49
15.24
 49
-1.27
 49
1.27
 49
-1.27
  0
LTYPE
  2
SLD-NAHT
 70
     0
  3
SolidWorks Line Style
 72
    65
 73
     2
 40
0.635
 49
0.0
 49
-0.635
  0
LTYPE
  2
SLD-DICKE-DÜNNE-KETTE
 70
     0
  3
SolidWorks Line Style
 72
    65
 73
     4
 40
10.16
 49
6.35
 49
-1.27
 49
1.27
 49
-1.27
  0
ENDTAB
  0
TABLE
  2
LAYER
 70
     4
  0
LAYER
  2
0
 70
     0
 62
     7
  6
CONTINUOUS
  0
LAYER
  2
DEFPOINTS
 70
     0
 62
     7
  6
CONTINUOUS
  0
LAYER
  2
BEZÜGE
 70
     0
 62
     1
  6
SLD-DURCHGEHEND
  0
LAYER
  2
TEXT
 70
     0
 62
     7
  6
SLD-DURCHGEHEND
  0
ENDTAB
  0
TABLE
  2
STYLE
 70
     1
  0
STYLE
  2
STANDARD
 70
     0
 40
0.0
 41
1.0
 50
0.0
 71
     0
 42
3.5277777778
  3
txt
  4

  0
ENDTAB
  0
TABLE
  2
VIEW
 70
     0
  0
ENDTAB
  0
TABLE
  2
UCS
 70
     0
  0
ENDTAB
  0
TABLE
  2
APPID
 70
     1
  0
APPID
  2
ACAD
 70
     0
  0
ENDTAB
  0
TABLE
  2
DIMSTYLE
 70
     1
  0
DIMSTYLE
  2
ISO-25
 70
     0
  3

  4

  5

  6

  7

 40
1.0
 41
2.5
 42
0.625
 43
3.75
 44
1.25
 45
0.0
 46
0.0
 47
0.0
 48
0.0
140
2.5
141
2.5
142
0.0
143
0.0393700787
144
1.0
145
0.0
146
1.0
147
0.625
 71
     0
 72
     0
 73
     0
 74
     0
 75
     0
 76
     0
 77
     1
 78
     8
170
     0
171
     3
172
     1
173
     0
174
     0
175
     0
176
     0
177
     0
178
     0
  0
ENDTAB
  0
ENDSEC
  0
SECTION
  2
BLOCKS
  0
BLOCK
  8
0
  2
$MODEL_SPACE
 70
     0
 10
0.0
 20
0.0
 30
0.0
  3
$MODEL_SPACE
  1

  0
ENDBLK
  5
21
  8
0
  0
BLOCK
 67
     1
  8
0
  2
$PAPER_SPACE
 70
     0
 10
0.0
 20
0.0
 30
0.0
  3
$PAPER_SPACE
  1

  0
ENDBLK
  5
1D
 67
     1
  8
0
  0
ENDSEC
  0
SECTION
  2
ENTITIES
  0
POLYLINE
  5
78
  8
0
  6
SLD-DURCHGEHEND
 62
     7
 66
     1
 10
0.0
 20
0.0
 30
0.0
 70
   128
  0
VERTEX
  5
D9
  8
0
  6
SLD-DURCHGEHEND
 62
     7
 10
136.9809047172
 20
165.2258054358
 30
0.0
  0
VERTEX
  5
DA
  8
0
  6
SLD-DURCHGEHEND
 62
     7
 10
137.0380667617
 20
164.7084426937
 30
0.0
  0
VERTEX
  5
DB
  8
0
  6
SLD-DURCHGEHEND
 62
     7
 10
137.2182402273
 20
164.2103204798
 30
0.0
  0
VERTEX
  5
DC
  8
0
  6
SLD-DURCHGEHEND
 62
     7
 10
137.5344561117
 20
163.7522696227
 30
0.0
  0
VERTEX
  5
DD
  8
0
  6
SLD-DURCHGEHEND
 62
     7
 10
137.9997454129
 20
163.3551209506
 30
0.0
  0
VERTEX
  5
DE
  8
0
  6
SLD-DURCHGEHEND
 62
     7
 10
138.4783980984
 20
163.0993699574
 30
0.0
  0
VERTEX
  5
DF
  8
0
  6
SLD-DURCHGEHEND
 62
     7
 10
139.0634462417
 20
162.9041807563
 30
0.0
  0
VERTEX
  5
E0
  8
0
  6
SLD-DURCHGEHEND
 62
     7
 10
139.7612106367
 20
162.7796575137
 30
0.0
  0
VERTEX
  5
E1
  8
0
  6
SLD-DURCHGEHEND
 62
     7
 10
140.5780120772
 20
162.7359043958
 30
0.0
  0
SEQEND
  5
118
  8
0
  6
SLD-DURCHGEHEND
 62
     7
  0
POLYLINE
  5
79
  8
0
  6
SLD-DURCHGEHEND
 62
     7
 66
     1
 10
0.0
 20
0.0
 30
0.0
 70
   128
  0
VERTEX
  5
E2
  8
0
  6
SLD-DURCHGEHEND
 62
     7
 10
140.5576717572
 20
167.7426406358
 30
0.0
  0
VERTEX
  5
E3
  8
0
  6
SLD-DURCHGEHEND
 62
     7
 10
139.7730965664
 20
167.696383187
 30
0.0
  0
VERTEX
  5
E4
  8
0
  6
SLD-DURCHGEHEND
 62
     7
 10
139.0409116438
 20
167.5556101292
 30
0.0
  0
VERTEX
  5
E5
  8
0
  6
SLD-DURCHGEHEND
 62
     7
 10
138.3844612803
 20
167.3173203952
 30
0.0
  0
VERTEX
  5
E6
  8
0
  6
SLD-DURCHGEHEND
 62
     7
 10
137.8270897671
 20
166.9785129179
 30
0.0
  0
VERTEX
  5
E7
  8
0
  6
SLD-DURCHGEHEND
 62
     7
 10
137.3748806384
 20
166.5124902791
 30
0.0
  0
VERTEX
  5
E8
  8
0
  6
SLD-DURCHGEHEND
 62
     7
 10
137.0838721167
 20
165.9294046286
 30
0.0
  0
VERTEX
  5
E9
  8
0
  6
SLD-DURCHGEHEND
 62
     7
 10
136.9809047172
 20
165.2258054358
 30
0.0
  0
SEQEND
  5
119
  8
0
  6
SLD-DURCHGEHEND
 62
     7
  0
ARC
  5
7A
  8
0
  6
SLD-DURCHGEHEND
 62
     7
 10
141.0318470134
 20
164.6108018429
 30
0.0
 40
3.16753159386541
 50
31.8256315907
 51
98.6094642606
  0
LINE
  5
7B
  8
0
  6
SLD-DURCHGEHEND
 62
     7
 10
141.9860763172
 20
166.0174015158
 30
0.0
 11
143.7231619972
 21
166.2811551158
 31
0.0
  0
ARC
  5
7C
  8
0
  6
SLD-DURCHGEHEND
 62
     7
 10
140.7330518456
 20
165.3551029393
 30
0.0
 40
1.417289572000904
 50
27.859137514
 51
97.1081887263
  0
ARC
  5
7D
  8
0
  6
SLD-DURCHGEHEND
 62
     7
 10
140.3724891925
 20
165.2923583454
 30
0.0
 40
1.480766219124962
 50
82.8158595708
 51
181.7927359629
  0
ARC
  5
7E
  8
0
  6
SLD-DURCHGEHEND
 62
     7
 10
140.3036680382
 20
165.1192914245
 30
0.0
 40
1.416900265017963
 50
174.8679989972
 51
278.2159903966
  0
ARC
  5
7F
  8
0
  6
SLD-DURCHGEHEND
 62
     7
 10
140.6660943295
 20
165.1673786964
 30
0.0
 40
1.4592370675051
 50
263.7072859153
 51
341.2350986664
  0
LINE
  5
80
  8
0
  6
SLD-DURCHGEHEND
 62
     7
 10
143.7641779172
 20
164.3461424758
 30
0.0
 11
142.0477678372
 21
164.6979629558
 31
0.0
  0
ARC
  5
81
  8
0
  6
SLD-DURCHGEHEND
 62
     7
 10
141.0340554697
 20
165.7908748995
 30
0.0
 40
3.088821839224225
 50
261.5096316182
 51
332.1129999548
  0
LINE
  5
82
  8
0
  6
SLD-DURCHGEHEND
 62
     7
 10
135.8709043972
 20
167.6613911158
 30
0.0
 11
130.0947005572
 21
167.6613911158
 31
0.0
  0
LINE
  5
83
  8
0
  6
SLD-DURCHGEHEND
 62
     7
 10
135.8709043972
 20
166.7344536758
 30
0.0
 11
135.8709043972
 21
167.6613911158
 31
0.0
  0
LINE
  5
84
  8
0
  6
SLD-DURCHGEHEND
 62
     7
 10
131.9756213572
 20
166.7344536758
 30
0.0
 11
135.8709043972
 21
166.7344536758
 31
0.0
  0
LINE
  5
85
  8
0
  6
SLD-DURCHGEHEND
 62
     7
 10
131.9756213572
 20
165.8075162358
 30
0.0
 11
131.9756213572
 21
166.7344536758
 31
0.0
  0
LINE
  5
86
  8
0
  6
SLD-DURCHGEHEND
 62
     7
 10
135.5934043172
 20
165.8075162358
 30
0.0
 11
131.9756213572
 21
165.8075162358
 31
0.0
  0
LINE
  5
87
  8
0
  6
SLD-DURCHGEHEND
 62
     7
 10
135.5934043172
 20
164.9077364758
 30
0.0
 11
135.5934043172
 21
165.8075162358
 31
0.0
  0
LINE
  5
88
  8
0
  6
SLD-DURCHGEHEND
 62
     7
 10
131.9756213572
 20
164.9077364758
 30
0.0
 11
135.5934043172
 21
164.9077364758
 31
0.0
  0
LINE
  5
89
  8
0
  6
SLD-DURCHGEHEND
 62
     7
 10
131.9756213572
 20
163.7710255158
 30
0.0
 11
131.9756213572
 21
164.9077364758
 31
0.0
  0
LINE
  5
8A
  8
0
  6
SLD-DURCHGEHEND
 62
     7
 10
135.9943991972
 20
163.7710255158
 30
0.0
 11
131.9756213572
 21
163.7710255158
 31
0.0
  0
LINE
  5
8B
  8
0
  6
SLD-DURCHGEHEND
 62
     7
 10
135.9943991972
 20
162.8171539158
 30
0.0
 11
135.9943991972
 21
163.7710255158
 31
0.0
  0
LINE
  5
8C
  8
0
  6
SLD-DURCHGEHEND
 62
     7
 10
130.0947005572
 20
162.8171539158
 30
0.0
 11
135.9943991972
 21
162.8171539158
 31
0.0
  0
LINE
  5
8D
  8
0
  6
SLD-DURCHGEHEND
 62
     7
 10
130.0947005572
 20
167.6613911158
 30
0.0
 11
130.0947005572
 21
162.8171539158
 31
0.0
  0
LINE
  5
8E
  8
0
  6
SLD-DURCHGEHEND
 62
     7
 10
122.7049058372
 20
166.6600215158
 30
0.0
 11
124.9556404772
 21
166.6600215158
 31
0.0
  0
LINE
  5
8F
  8
0
  6
SLD-DURCHGEHEND
 62
     7
 10
122.7049058372
 20
167.6613911158
 30
0.0
 11
122.7049058372
 21
166.6600215158
 31
0.0
  0
LINE
  5
90
  8
0
  6
SLD-DURCHGEHEND
 62
     7
 10
129.0875194372
 20
167.6613911158
 30
0.0
 11
122.7049058372
 21
167.6613911158
 31
0.0
  0
LINE
  5
91
  8
0
  6
SLD-DURCHGEHEND
 62
     7
 10
129.0875194372
 20
166.6600215158
 30
0.0
 11
129.0875194372
 21
167.6613911158
 31
0.0
  0
LINE
  5
92
  8
0
  6
SLD-DURCHGEHEND
 62
     7
 10
126.8366730372
 20
166.6600215158
 30
0.0
 11
129.0875194372
 21
166.6600215158
 31
0.0
  0
LINE
  5
93
  8
0
  6
SLD-DURCHGEHEND
 62
     7
 10
126.8366730372
 20
162.8171539158
 30
0.0
 11
126.8366730372
 21
166.6600215158
 31
0.0
  0
LINE
  5
94
  8
0
  6
SLD-DURCHGEHEND
 62
     7
 10
124.9556404772
 20
162.8171539158
 30
0.0
 11
126.8366730372
 21
162.8171539158
 31
0.0
  0
LINE
  5
95
  8
0
  6
SLD-DURCHGEHEND
 62
     7
 10
124.9556404772
 20
166.6600215158
 30
0.0
 11
124.9556404772
 21
162.8171539158
 31
0.0
  0
LINE
  5
96
  8
0
  6
SLD-DURCHGEHEND
 62
     7
 10
121.6977247172
 20
167.6613911158
 30
0.0
 11
119.8168039172
 21
167.6613911158
 31
0.0
  0
LINE
  5
97
  8
0
  6
SLD-DURCHGEHEND
 62
     7
 10
121.6977247172
 20
162.8171539158
 30
0.0
 11
121.6977247172
 21
167.6613911158
 31
0.0
  0
LINE
  5
98
  8
0
  6
SLD-DURCHGEHEND
 62
     7
 10
119.8168039172
 20
162.8171539158
 30
0.0
 11
121.6977247172
 21
162.8171539158
 31
0.0
  0
LINE
  5
99
  8
0
  6
SLD-DURCHGEHEND
 62
     7
 10
119.8168039172
 20
167.6613911158
 30
0.0
 11
119.8168039172
 21
162.8171539158
 31
0.0
  0
POLYLINE
  5
9A
  8
0
  6
SLD-DURCHGEHEND
 62
     7
 66
     1
 10
0.0
 20
0.0
 30
0.0
 70
   128
  0
VERTEX
  5
EA
  8
0
  6
SLD-DURCHGEHEND
 62
     7
 10
111.8204876772
 20
165.2258054358
 30
0.0
  0
VERTEX
  5
EB
  8
0
  6
SLD-DURCHGEHEND
 62
     7
 10
111.877661638
 20
164.7084426937
 30
0.0
  0
VERTEX
  5
EC
  8
0
  6
SLD-DURCHGEHEND
 62
     7
 10
112.0578659458
 20
164.2103204798
 30
0.0
  0
VERTEX
  5
ED
  8
0
  6
SLD-DURCHGEHEND
 62
     7
 10
112.3741242382
 20
163.7522696227
 30
0.0
  0
VERTEX
  5
EE
  8
0
  6
SLD-DURCHGEHEND
 62
     7
 10
112.8394601531
 20
163.3551209506
 30
0.0
  0
VERTEX
  5
EF
  8
0
  6
SLD-DURCHGEHEND
 62
     7
 10
113.3181476197
 20
163.0993699574
 30
0.0
  0
VERTEX
  5
F0
  8
0
  6
SLD-DURCHGEHEND
 62
     7
 10
113.9032250267
 20
162.9041807563
 30
0.0
  0
VERTEX
  5
F1
  8
0
  6
SLD-DURCHGEHEND
 62
     7
 10
114.601009598
 20
162.7796575137
 30
0.0
  0
VERTEX
  5
F2
  8
0
  6
SLD-DURCHGEHEND
 62
     7
 10
115.4178185572
 20
162.7359043958
 30
0.0
  0
SEQEND
  5
11A
  8
0
  6
SLD-DURCHGEHEND
 62
     7
  0
POLYLINE
  5
9B
  8
0
  6
SLD-DURCHGEHEND
 62
     7
 66
     1
 10
0.0
 20
0.0
 30
0.0
 70
   128
  0
VERTEX
  5
F3
  8
0
  6
SLD-DURCHGEHEND
 62
     7
 10
115.3972547172
 20
167.7426406358
 30
0.0
  0
VERTEX
  5
F4
  8
0
  6
SLD-DURCHGEHEND
 62
     7
 10
114.6127142427
 20
167.696383187
 30
0.0
  0
VERTEX
  5
F5
  8
0
  6
SLD-DURCHGEHEND
 62
     7
 10
113.8805432703
 20
167.5556101292
 30
0.0
  0
VERTEX
  5
F6
  8
0
  6
SLD-DURCHGEHEND
 62
     7
 10
113.2240916113
 20
167.3173203952
 30
0.0
  0
VERTEX
  5
F7
  8
0
  6
SLD-DURCHGEHEND
 62
     7
 10
112.6667090768
 20
166.9785129179
 30
0.0
  0
VERTEX
  5
F8
  8
0
  6
SLD-DURCHGEHEND
 62
     7
 10
112.214483985
 20
166.5124902791
 30
0.0
  0
VERTEX
  5
F9
  8
0
  6
SLD-DURCHGEHEND
 62
     7
 10
111.9234612311
 20
165.9294046286
 30
0.0
  0
VERTEX
  5
FA
  8
0
  6
SLD-DURCHGEHEND
 62
     7
 10
111.8204876772
 20
165.2258054358
 30
0.0
  0
SEQEND
  5
11B
  8
0
  6
SLD-DURCHGEHEND
 62
     7
  0
ARC
  5
9C
  8
0
  6
SLD-DURCHGEHEND
 62
     7
 10
115.8714694719
 20
164.6108873943
 30
0.0
 40
3.167452919787627
 50
31.8246934933
 51
98.610402358
  0
LINE
  5
9D
  8
0
  6
SLD-DURCHGEHEND
 62
     7
 10
116.8258827972
 20
166.0174015158
 30
0.0
 11
118.5627449572
 21
166.2811551158
 31
0.0
  0
ARC
  5
9E
  8
0
  6
SLD-DURCHGEHEND
 62
     7
 10
115.572360258
 20
165.3541993926
 30
0.0
 40
1.418152252917412
 50
27.8820080422
 51
97.0926645574
  0
ARC
  5
9F
  8
0
  6
SLD-DURCHGEHEND
 62
     7
 10
115.2120716793
 20
165.2924680089
 30
0.0
 40
1.480657475856385
 50
82.8153107088
 51
181.7971133082
  0
ARC
  5
A0
  8
0
  6
SLD-DURCHGEHEND
 62
     7
 10
115.1433701339
 20
165.1193140028
 30
0.0
 40
1.416905591708696
 50
174.8689350231
 51
278.2110918465
  0
ARC
  5
A1
  8
0
  6
SLD-DURCHGEHEND
 62
     7
 10
115.5058780987
 20
165.1672205244
 30
0.0
 40
1.459101874950486
 50
263.6987672992
 51
341.2398547366
  0
LINE
  5
A2
  8
0
  6
SLD-DURCHGEHEND
 62
     7
 10
118.6039843972
 20
164.3461424758
 30
0.0
 11
116.8874625572
 21
164.6979629558
 31
0.0
  0
ARC
  5
A3
  8
0
  6
SLD-DURCHGEHEND
 62
     7
 10
115.8738842832
 20
165.7908307083
 30
0.0
 40
3.088781429879686
 50
261.509100852
 51
332.113530721
  0
LINE
  5
A4
  8
0
  6
SLD-DURCHGEHEND
 62
     7
 10
110.7104873572
 20
167.6613911158
 30
0.0
 11
104.9340599972
 21
167.6613911158
 31
0.0
  0
LINE
  5
A5
  8
0
  6
SLD-DURCHGEHEND
 62
     7
 10
110.7104873572
 20
166.7344536758
 30
0.0
 11
110.7104873572
 21
167.6613911158
 31
0.0
  0
LINE
  5
A6
  8
0
  6
SLD-DURCHGEHEND
 62
     7
 10
106.8152043172
 20
166.7344536758
 30
0.0
 11
110.7104873572
 21
166.7344536758
 31
0.0
  0
LINE
  5
A7
  8
0
  6
SLD-DURCHGEHEND
 62
     7
 10
106.8152043172
 20
165.8075162358
 30
0.0
 11
106.8152043172
 21
166.7344536758
 31
0.0
  0
LINE
  5
A8
  8
0
  6
SLD-DURCHGEHEND
 62
     7
 10
110.4329872772
 20
165.8075162358
 30
0.0
 11
106.8152043172
 21
165.8075162358
 31
0.0
  0
LINE
  5
A9
  8
0
  6
SLD-DURCHGEHEND
 62
     7
 10
110.4329872772
 20
164.9077364758
 30
0.0
 11
110.4329872772
 21
165.8075162358
 31
0.0
  0
LINE
  5
AA
  8
0
  6
SLD-DURCHGEHEND
 62
     7
 10
106.8152043172
 20
164.9077364758
 30
0.0
 11
110.4329872772
 21
164.9077364758
 31
0.0
  0
LINE
  5
AB
  8
0
  6
SLD-DURCHGEHEND
 62
     7
 10
106.8152043172
 20
163.7710255158
 30
0.0
 11
106.8152043172
 21
164.9077364758
 31
0.0
  0
LINE
  5
AC
  8
0
  6
SLD-DURCHGEHEND
 62
     7
 10
110.8338703972
 20
163.7710255158
 30
0.0
 11
106.8152043172
 21
163.7710255158
 31
0.0
  0
LINE
  5
AD
  8
0
  6
SLD-DURCHGEHEND
 62
     7
 10
110.8338703972
 20
162.8171539158
 30
0.0
 11
110.8338703972
 21
163.7710255158
 31
0.0
  0
LINE
  5
AE
  8
0
  6
SLD-DURCHGEHEND
 62
     7
 10
104.9340599972
 20
162.8171539158
 30
0.0
 11
110.8338703972
 21
162.8171539158
 31
0.0
  0
LINE
  5
AF
  8
0
  6
SLD-DURCHGEHEND
 62
     7
 10
104.9340599972
 20
167.6613911158
 30
0.0
 11
104.9340599972
 21
162.8171539158
 31
0.0
  0
POLYLINE
  5
B0
  8
0
  6
SLD-DURCHGEHEND
 62
     7
 66
     1
 10
0.0
 20
0.0
 30
0.0
 70
   128
  0
VERTEX
  5
FB
  8
0
  6
SLD-DURCHGEHEND
 62
     7
 10
100.1344150372
 20
165.6587636758
 30
0.0
  0
VERTEX
  5
FC
  8
0
  6
SLD-DURCHGEHEND
 62
     7
 10
100.6567009497
 20
165.669424532
 30
0.0
  0
VERTEX
  5
FD
  8
0
  6
SLD-DURCHGEHEND
 62
     7
 10
101.1443063372
 20
165.7339921258
 30
0.0
  0
VERTEX
  5
FE
  8
0
  6
SLD-DURCHGEHEND
 62
     7
 10
101.3461924825
 20
165.8017651797
 30
0.0
  0
VERTEX
  5
FF
  8
0
  6
SLD-DURCHGEHEND
 62
     7
 10
101.5047148747
 20
165.9013439945
 30
0.0
  0
VERTEX
  5
100
  8
0
  6
SLD-DURCHGEHEND
 62
     7
 10
101.6083089731
 20
166.0388382625
 30
0.0
  0
VERTEX
  5
101
  8
0
  6
SLD-DURCHGEHEND
 62
     7
 10
101.6454102372
 20
166.2203576758
 30
0.0
  0
SEQEND
  5
11C
  8
0
  6
SLD-DURCHGEHEND
 62
     7
  0
POLYLINE
  5
B1
  8
0
  6
SLD-DURCHGEHEND
 62
     7
 66
     1
 10
0.0
 20
0.0
 30
0.0
 70
   128
  0
VERTEX
  5
102
  8
0
  6
SLD-DURCHGEHEND
 62
     7
 10
101.6454102372
 20
166.2203576758
 30
0.0
  0
VERTEX
  5
103
  8
0
  6
SLD-DURCHGEHEND
 62
     7
 10
101.6109396987
 20
166.3989767861
 30
0.0
  0
VERTEX
  5
104
  8
0
  6
SLD-DURCHGEHEND
 62
     7
 10
101.5141935197
 20
166.5332053483
 30
0.0
  0
VERTEX
  5
105
  8
0
  6
SLD-DURCHGEHEND
 62
     7
 10
101.3651698544
 20
166.6293848692
 30
0.0
  0
VERTEX
  5
106
  8
0
  6
SLD-DURCHGEHEND
 62
     7
 10
101.1738668572
 20
166.6938568558
 30
0.0
  0
VERTEX
  5
107
  8
0
  6
SLD-DURCHGEHEND
 62
     7
 10
100.7044154847
 20
166.7530442533
 30
0.0
  0
VERTEX
  5
108
  8
0
  6
SLD-DURCHGEHEND
 62
     7
 10
100.1858246372
 20
166.7614995958
 30
0.0
  0
SEQEND
  5
11D
  8
0
  6
SLD-DURCHGEHEND
 62
     7
  0
LINE
  5
B2
  8
0
  6
SLD-DURCHGEHEND
 62
     7
 10
100.1858246372
 20
166.7614995958
 30
0.0
 11
99.1066700772
 21
166.7614995958
 31
0.0
  0
LINE
  5
B3
  8
0
  6
SLD-DURCHGEHEND
 62
     7
 10
99.1066700772
 20
166.7614995958
 30
0.0
 11
99.1066700772
 21
165.6587636758
 31
0.0
  0
LINE
  5
B4
  8
0
  6
SLD-DURCHGEHEND
 62
     7
 10
99.1066700772
 20
165.6587636758
 30
0.0
 11
100.1344150372
 21
165.6587636758
 31
0.0
  0
LINE
  5
B5
  8
0
  6
SLD-DURCHGEHEND
 62
     7
 10
100.6791332772
 20
167.6613911158
 30
0.0
 11
97.2257492772
 21
167.6613911158
 31
0.0
  0
ARC
  5
B6
  8
0
  6
SLD-DURCHGEHEND
 62
     7
 10
100.9479260425
 20
160.4439889104
 30
0.0
 40
7.22240570345622
 50
78.6864024821
 51
92.1328417482
  0
ARC
  5
B7
  8
0
  6
SLD-DURCHGEHEND
 62
     7
 10
102.2146386907
 20
166.1867566853
 30
0.0
 40
1.347685852754396
 50
5.1701222394
 51
83.6023288305
  0
POLYLINE
  5
B8
  8
0
  6
SLD-DURCHGEHEND
 62
     7
 66
     1
 10
0.0
 20
0.0
 30
0.0
 70
   128
  0
VERTEX
  5
109
  8
0
  6
SLD-DURCHGEHEND
 62
     7
 10
101.6967080772
 20
164.9618283158
 30
0.0
  0
VERTEX
  5
10A
  8
0
  6
SLD-DURCHGEHEND
 62
     7
 10
101.9593720172
 20
164.9986325395
 30
0.0
  0
VERTEX
  5
10B
  8
0
  6
SLD-DURCHGEHEND
 62
     7
 10
102.3388065305
 20
165.0824007988
 30
0.0
  0
VERTEX
  5
10C
  8
0
  6
SLD-DURCHGEHEND
 62
     7
 10
102.7616411772
 20
165.2341874358
 30
0.0
  0
VERTEX
  5
10D
  8
0
  6
SLD-DURCHGEHEND
 62
     7
 10
103.0631115944
 20
165.4053299767
 30
0.0
  0
VERTEX
  5
10E
  8
0
  6
SLD-DURCHGEHEND
 62
     7
 10
103.3167705597
 20
165.6354582233
 30
0.0
  0
VERTEX
  5
10F
  8
0
  6
SLD-DURCHGEHEND
 62
     7
 10
103.4916649187
 20
165.9334544761
 30
0.0
  0
VERTEX
  5
110
  8
0
  6
SLD-DURCHGEHEND
 62
     7
 10
103.5568415172
 20
166.3082010358
 30
0.0
  0
SEQEND
  5
11E
  8
0
  6
SLD-DURCHGEHEND
 62
     7
  0
LINE
  5
B9
  8
0
  6
SLD-DURCHGEHEND
 62
     7
 10
101.6967080772
 20
164.9484171158
 30
0.0
 11
101.6967080772
 21
164.9618283158
 31
0.0
  0
ARC
  5
BA
  8
0
  6
SLD-DURCHGEHEND
 62
     7
 10
100.9140913285
 20
162.1820375665
 30
0.0
 40
2.87495126675681
 50
39.0774616666
 51
74.2036388822
  0
LINE
  5
BB
  8
0
  6
SLD-DURCHGEHEND
 62
     7
 10
104.1429109572
 20
162.8171539158
 30
0.0
 11
103.1458999972
 21
163.9943219958
 31
0.0
  0
LINE
  5
BC
  8
0
  6
SLD-DURCHGEHEND
 62
     7
 10
101.9743199172
 20
162.8171539158
 30
0.0
 11
104.1429109572
 21
162.8171539158
 31
0.0
  0
LINE
  5
BD
  8
0
  6
SLD-DURCHGEHEND
 62
     7
 10
100.8333620772
 20
164.0822771158
 30
0.0
 11
101.9743199172
 21
162.8171539158
 31
0.0
  0
ARC
  5
BE
  8
0
  6
SLD-DURCHGEHEND
 62
     7
 10
99.4578462175
 20
163.1451187851
 30
0.0
 40
1.664424710532403
 50
34.2671556204
 51
93.6004045204
  0
LINE
  5
BF
  8
0
  6
SLD-DURCHGEHEND
 62
     7
 10
99.1066700772
 20
164.8062583958
 30
0.0
 11
99.3533243972
 21
164.8062583958
 31
0.0
  0
LINE
  5
C0
  8
0
  6
SLD-DURCHGEHEND
 62
     7
 10
99.1066700772
 20
162.8171539158
 30
0.0
 11
99.1066700772
 21
164.8062583958
 31
0.0
  0
LINE
  5
C1
  8
0
  6
SLD-DURCHGEHEND
 62
     7
 10
97.2257492772
 20
162.8171539158
 30
0.0
 11
99.1066700772
 21
162.8171539158
 31
0.0
  0
LINE
  5
C2
  8
0
  6
SLD-DURCHGEHEND
 62
     7
 10
97.2257492772
 20
167.6613911158
 30
0.0
 11
97.2257492772
 21
162.8171539158
 31
0.0
  0
POLYLINE
  5
C3
  8
0
  6
SLD-DURCHGEHEND
 62
     7
 66
     1
 10
0.0
 20
0.0
 30
0.0
 70
   128
  0
VERTEX
  5
111
  8
0
  6
SLD-DURCHGEHEND
 62
     7
 10
92.6211255172
 20
165.5301279158
 30
0.0
  0
VERTEX
  5
112
  8
0
  6
SLD-DURCHGEHEND
 62
     7
 10
93.0680939209
 20
165.539748007
 30
0.0
  0
VERTEX
  5
113
  8
0
  6
SLD-DURCHGEHEND
 62
     7
 10
93.5603146472
 20
165.6070886458
 30
0.0
  0
VERTEX
  5
114
  8
0
  6
SLD-DURCHGEHEND
 62
     7
 10
93.7797394726
 20
165.6804418416
 30
0.0
  0
VERTEX
  5
115
  8
0
  6
SLD-DURCHGEHEND
 62
     7
 10
93.9580911884
 20
165.7898703795
 30
0.0
  0
VERTEX
  5
116
  8
0
  6
SLD-DURCHGEHEND
 62
     7
 10
94.0779077311
 20
165.9425893281
 30
0.0
  0
VERTEX
  5
117
  8
0
  6
SLD-DURCHGEHEND
 62
     7
 10
94.1217270372
 20
166.1458137558
 30
0.0
  0
SEQEND
  5
11F
  8
0
  6
SLD-DURCHGEHEND
 62
     7
  0
ARC
  5
C4
  8
0
  6
SLD-DURCHGEHEND
 62
     7
 10
93.6051609116
 20
166.1202539582
 30
0.0
 40
0.517198091027827
 50
2.8326966424
 51
62.4687044144
  0
ARC
  5
C5
  8
0
  6
SLD-DURCHGEHEND
 62
     7
 10
92.8984578033
 20
164.431705421
 30
0.0
 40
2.346242547969439
 50
66.227914436
 51
96.7883886395
  0
LINE
  5
C6
  8
0
  6
SLD-DURCHGEHEND
 62
     7
 10
92.6211255172
 20
166.7614995958
 30
0.0
 11
91.9325721572
 21
166.7614995958
 31
0.0
  0
LINE
  5
C7
  8
0
  6
SLD-DURCHGEHEND
 62
     7
 10
91.9325721572
 20
166.7614995958
 30
0.0
 11
91.9325721572
 21
165.5301279158
 31
0.0
  0
LINE
  5
C8
  8
0
  6
SLD-DURCHGEHEND
 62
     7
 10
91.9325721572
 20
165.5301279158
 30
0.0
 11
92.6211255172
 21
165.5301279158
 31
0.0
  0
LINE
  5
C9
  8
0
  6
SLD-DURCHGEHEND
 62
     7
 10
93.0735299972
 20
167.6613911158
 30
0.0
 11
90.0516513572
 21
167.6613911158
 31
0.0
  0
LINE
  5
CA
  8
0
  6
SLD-DURCHGEHEND
 62
     7
 10
91.9325721572
 20
164.6303481558
 30
0.0
 11
93.0425724772
 21
164.6303481558
 31
0.0
  0
LINE
  5
CB
  8
0
  6
SLD-DURCHGEHEND
 62
     7
 10
91.9325721572
 20
162.8171539158
 30
0.0
 11
91.9325721572
 21
164.6303481558
 31
0.0
  0
LINE
  5
CC
  8
0
  6
SLD-DURCHGEHEND
 62
     7
 10
90.0516513572
 20
167.6613911158
 30
0.0
 11
90.0516513572
 21
162.8171539158
 31
0.0
  0
ARC
  5
CD
  8
0
  6
SLD-DURCHGEHEND
 62
     7
 10
94.750475602
 20
166.1944471506
 30
0.0
 40
1.242077925867744
 50
359.0041418091
 51
62.4864115439
  0
ARC
  5
CE
  8
0
  6
SLD-DURCHGEHEND
 62
     7
 10
94.5528004676
 20
166.231446264
 30
0.0
 40
1.440757117583136
 50
282.7989345802
 51
357.6694961433
  0
ARC
  5
CF
  8
0
  6
SLD-DURCHGEHEND
 62
     7
 10
93.3123558677
 20
170.7435944207
 30
0.0
 40
6.119196268574088
 50
267.4731221311
 51
284.7660419167
  0
ARC
  5
D0
  8
0
  6
SLD-DURCHGEHEND
 62
     7
 10
93.4873770733
 20
163.0953280858
 30
0.0
 40
4.584779274517611
 50
66.3812385952
 51
95.1788773057
  0
LINE
  5
D1
  8
0
  6
SLD-DURCHGEHEND
 62
     7
 10
90.0516513572
 20
162.8171539158
 30
0.0
 11
91.9325721572
 21
162.8171539158
 31
0.0
  0
LINE
  5
D2
  8
0
  6
SLD-DURCHGEHEND
 62
     7
 10
86.8695088772
 20
167.7426406358
 30
0.0
 11
85.4757499172
 21
167.7426406358
 31
0.0
  0
LINE
  5
D3
  8
0
  6
SLD-DURCHGEHEND
 62
     7
 10
86.8695088772
 20
162.7359043958
 30
0.0
 11
86.8695088772
 21
167.7426406358
 31
0.0
  0
LINE
  5
D4
  8
0
  6
SLD-DURCHGEHEND
 62
     7
 10
77.5349783972
 20
167.7426406358
 30
0.0
 11
77.5349783972
 21
162.7359043958
 31
0.0
  0
LINE
  5
D5
  8
0
  6
SLD-DURCHGEHEND
 62
     7
 10
78.9396898372
 20
167.7426406358
 30
0.0
 11
77.5349783972
 21
167.7426406358
 31
0.0
  0
LINE
  5
D6
  8
0
  6
SLD-DURCHGEHEND
 62
     7
 10
85.4757499172
 20
167.7426406358
 30
0.0
 11
82.1960409572
 21
162.7521095958
 31
0.0
  0
LINE
  5
D7
  8
0
  6
SLD-DURCHGEHEND
 62
     7
 10
77.5349783972
 20
162.7359043958
 30
0.0
 11
86.8695088772
 21
162.7359043958
 31
0.0
  0
LINE
  5
D8
  8
0
  6
SLD-DURCHGEHEND
 62
     7
 10
82.1960409572
 20
162.7521095958
 30
0.0
 11
78.9396898372
 21
167.7426406358
 31
0.0
  0
ENDSEC
  0
EOF
